<mxfile host="app.diagrams.net" modified="2021-10-02T08:47:07.223Z" agent="5.0 (Windows NT 10.0; Win64; x64) AppleWebKit/537.36 (KHTML, like Gecko) Chrome/87.0.4280.88 Safari/537.36" etag="vNVRIQTr74R3BPYCYSS_" version="15.4.1" type="github">
  <diagram id="n3VAPkxUS_edvvYKPWDh" name="Page-1">
    <mxGraphModel dx="981" dy="548" grid="1" gridSize="10" guides="1" tooltips="1" connect="1" arrows="1" fold="1" page="1" pageScale="1" pageWidth="827" pageHeight="1169" math="0" shadow="0">
      <root>
        <mxCell id="0" />
        <mxCell id="1" parent="0" />
        <mxCell id="bHY3L9cFRCKoDdG2flHM-1" value="" style="shape=flexArrow;endArrow=classic;html=1;rounded=0;strokeWidth=1;edgeStyle=orthogonalEdgeStyle;width=13.714285714285714;endSize=3.8628571428571425;" edge="1" parent="1">
          <mxGeometry width="50" height="50" relative="1" as="geometry">
            <mxPoint x="620" y="34.710000000000036" as="sourcePoint" />
            <mxPoint x="650" y="34.710000000000036" as="targetPoint" />
            <Array as="points">
              <mxPoint x="630" y="35" />
              <mxPoint x="630" y="35" />
            </Array>
          </mxGeometry>
        </mxCell>
        <mxCell id="bHY3L9cFRCKoDdG2flHM-2" value=": call" style="text;html=1;strokeColor=none;fillColor=none;align=center;verticalAlign=middle;whiteSpace=wrap;rounded=0;" vertex="1" parent="1">
          <mxGeometry x="640" y="20" width="60" height="30" as="geometry" />
        </mxCell>
        <mxCell id="bHY3L9cFRCKoDdG2flHM-3" value="" style="endArrow=classic;html=1;rounded=0;strokeWidth=1;edgeStyle=orthogonalEdgeStyle;" edge="1" parent="1">
          <mxGeometry width="50" height="50" relative="1" as="geometry">
            <mxPoint x="710" y="40" as="sourcePoint" />
            <mxPoint x="740" y="40" as="targetPoint" />
          </mxGeometry>
        </mxCell>
        <mxCell id="bHY3L9cFRCKoDdG2flHM-4" value=": ret" style="text;html=1;strokeColor=none;fillColor=none;align=center;verticalAlign=middle;whiteSpace=wrap;rounded=0;" vertex="1" parent="1">
          <mxGeometry x="730" y="20" width="60" height="30" as="geometry" />
        </mxCell>
        <mxCell id="bHY3L9cFRCKoDdG2flHM-7" style="edgeStyle=orthogonalEdgeStyle;rounded=0;orthogonalLoop=1;jettySize=auto;html=1;entryX=0;entryY=0.5;entryDx=0;entryDy=0;shape=flexArrow;exitX=0.5;exitY=1;exitDx=0;exitDy=0;" edge="1" parent="1" source="bHY3L9cFRCKoDdG2flHM-5" target="bHY3L9cFRCKoDdG2flHM-6">
          <mxGeometry relative="1" as="geometry">
            <mxPoint x="195" y="140" as="sourcePoint" />
          </mxGeometry>
        </mxCell>
        <mxCell id="bHY3L9cFRCKoDdG2flHM-17" style="edgeStyle=orthogonalEdgeStyle;shape=flexArrow;rounded=0;orthogonalLoop=1;jettySize=auto;html=1;entryX=0;entryY=0.5;entryDx=0;entryDy=0;exitX=0.5;exitY=1;exitDx=0;exitDy=0;" edge="1" parent="1" source="bHY3L9cFRCKoDdG2flHM-5" target="bHY3L9cFRCKoDdG2flHM-13">
          <mxGeometry relative="1" as="geometry" />
        </mxCell>
        <mxCell id="bHY3L9cFRCKoDdG2flHM-18" style="edgeStyle=orthogonalEdgeStyle;shape=flexArrow;rounded=0;orthogonalLoop=1;jettySize=auto;html=1;exitX=0.5;exitY=1;exitDx=0;exitDy=0;entryX=0;entryY=0.5;entryDx=0;entryDy=0;" edge="1" parent="1" source="bHY3L9cFRCKoDdG2flHM-5" target="bHY3L9cFRCKoDdG2flHM-14">
          <mxGeometry relative="1" as="geometry" />
        </mxCell>
        <mxCell id="bHY3L9cFRCKoDdG2flHM-19" style="edgeStyle=orthogonalEdgeStyle;shape=flexArrow;rounded=0;orthogonalLoop=1;jettySize=auto;html=1;entryX=0;entryY=0.5;entryDx=0;entryDy=0;exitX=0.5;exitY=1;exitDx=0;exitDy=0;" edge="1" parent="1" source="bHY3L9cFRCKoDdG2flHM-5" target="bHY3L9cFRCKoDdG2flHM-15">
          <mxGeometry relative="1" as="geometry" />
        </mxCell>
        <mxCell id="bHY3L9cFRCKoDdG2flHM-20" style="edgeStyle=orthogonalEdgeStyle;shape=flexArrow;rounded=0;orthogonalLoop=1;jettySize=auto;html=1;exitX=0.5;exitY=1;exitDx=0;exitDy=0;entryX=0;entryY=0.5;entryDx=0;entryDy=0;" edge="1" parent="1" source="bHY3L9cFRCKoDdG2flHM-5" target="bHY3L9cFRCKoDdG2flHM-16">
          <mxGeometry relative="1" as="geometry" />
        </mxCell>
        <mxCell id="bHY3L9cFRCKoDdG2flHM-5" value="main" style="rounded=0;whiteSpace=wrap;html=1;" vertex="1" parent="1">
          <mxGeometry x="140" y="80" width="110" height="50" as="geometry" />
        </mxCell>
        <mxCell id="bHY3L9cFRCKoDdG2flHM-6" value="init" style="rounded=0;whiteSpace=wrap;html=1;" vertex="1" parent="1">
          <mxGeometry x="280" y="150" width="110" height="50" as="geometry" />
        </mxCell>
        <mxCell id="bHY3L9cFRCKoDdG2flHM-12" value="" style="rounded=1;whiteSpace=wrap;html=1;fillColor=none;strokeColor=default;shadow=0;sketch=0;glass=1;" vertex="1" parent="1">
          <mxGeometry x="150" y="230" width="550" height="420" as="geometry" />
        </mxCell>
        <mxCell id="bHY3L9cFRCKoDdG2flHM-13" value="set_rank" style="rounded=0;whiteSpace=wrap;html=1;" vertex="1" parent="1">
          <mxGeometry x="320" y="250" width="110" height="50" as="geometry" />
        </mxCell>
        <mxCell id="bHY3L9cFRCKoDdG2flHM-14" value="selection&lt;span style=&quot;color: rgba(0 , 0 , 0 , 0) ; font-family: monospace ; font-size: 0px&quot;&gt;%3CmxGraphModel%3E%3Croot%3E%3CmxCell%20id%3D%220%22%2F%3E%3CmxCell%20id%3D%221%22%20parent%3D%220%22%2F%3E%3CmxCell%20id%3D%222%22%20value%3D%22set_rank%22%20style%3D%22rounded%3D0%3BwhiteSpace%3Dwrap%3Bhtml%3D1%3B%22%20vertex%3D%221%22%20parent%3D%221%22%3E%3CmxGeometry%20x%3D%22280%22%20y%3D%22250%22%20width%3D%22110%22%20height%3D%2250%22%20as%3D%22geometry%22%2F%3E%3C%2FmxCell%3E%3C%2Froot%3E%3C%2FmxGraphModel%3E&lt;/span&gt;" style="rounded=0;whiteSpace=wrap;html=1;" vertex="1" parent="1">
          <mxGeometry x="320" y="330" width="110" height="50" as="geometry" />
        </mxCell>
        <mxCell id="bHY3L9cFRCKoDdG2flHM-15" value="crossover" style="rounded=0;whiteSpace=wrap;html=1;" vertex="1" parent="1">
          <mxGeometry x="320" y="420" width="110" height="50" as="geometry" />
        </mxCell>
        <mxCell id="bHY3L9cFRCKoDdG2flHM-16" value="mutation" style="rounded=0;whiteSpace=wrap;html=1;" vertex="1" parent="1">
          <mxGeometry x="320" y="500" width="110" height="50" as="geometry" />
        </mxCell>
        <mxCell id="bHY3L9cFRCKoDdG2flHM-21" value="&lt;b&gt;&lt;font style=&quot;font-size: 18px&quot;&gt;while&lt;/font&gt;&lt;/b&gt;" style="text;html=1;strokeColor=none;fillColor=none;align=center;verticalAlign=middle;whiteSpace=wrap;rounded=0;shadow=0;glass=1;sketch=0;" vertex="1" parent="1">
          <mxGeometry x="130" y="210" width="60" height="30" as="geometry" />
        </mxCell>
        <mxCell id="bHY3L9cFRCKoDdG2flHM-22" value="&lt;font style=&quot;font-size: 13px&quot;&gt;curr_generation&lt;/font&gt;" style="text;html=1;strokeColor=none;fillColor=none;align=center;verticalAlign=middle;whiteSpace=wrap;rounded=0;shadow=0;glass=1;sketch=0;fontSize=18;" vertex="1" parent="1">
          <mxGeometry x="190" y="240" width="120" height="30" as="geometry" />
        </mxCell>
      </root>
    </mxGraphModel>
  </diagram>
</mxfile>
